<svg width="868.810009765625px" height="96.839990234375px" xmlns="http://www.w3.org/2000/svg" viewBox="-184.40500488281248 26.580004882812503 868.810009765625 96.839990234375" style="background: none;" preserveAspectRatio="xMidYMid"><defs><filter id="editing-extrusion" x="-100%" y="-100%" width="300%" height="300%"><feFlood result="color1" flood-color="#4c5630"></feFlood><feConvolveMatrix order="8,8" divisor="1" kernelMatrix="1 0 0 0 0 0 0 0 0 1 0 0 0 0 0 0 0 0 1 0 0 0 0 0 0 0 0 1 0 0 0 0 0 0 0 0 1 0 0 0 0 0 0 0 0 1 0 0 0 0 0 0 0 0 1 0 0 0 0 0 0 0 0 1" in="SourceAlpha" result="extrude"></feConvolveMatrix><feComposite in="color1" in2="extrude" result="comp-extrude" operator="in"></feComposite><feOffset dx="4" dy="4" in="comp-extrude" result="offset-extrude"></feOffset><feMerge><feMergeNode in="offset-extrude"></feMergeNode><feMergeNode in="SourceGraphic"></feMergeNode></feMerge></filter></defs><g filter="url(#editing-extrusion)"><g transform="translate(-60.99501711130142, 96.81500053405762)"><path d="M18.72-3.60L18.72-3.60L18.72-3.60Q18.72-6.96 20.06-13.68L20.06-13.68L12.96-13.68L10.32 0L0.29 0L6.38-31.68L16.51-31.68L13.73-17.52L20.83-17.52L23.47-31.68L33.60-31.68L33.60-31.68Q32.93-28.13 32.06-24.14L32.06-24.14L30.43-16.32L30.43-16.32Q28.61-7.20 28.61-3.22L28.61-3.22L28.61-3.22Q28.61-1.58 29.14-0.67L29.14-0.67L29.14-0.67Q26.74 0.96 23.93 0.96L23.93 0.96L23.93 0.96Q21.12 0.96 19.92-0.38L19.92-0.38L19.92-0.38Q18.72-1.73 18.72-3.60ZM55.25-7.39L55.25-7.39L55.25-7.39Q56.16-6.24 56.16-4.37L56.16-4.37L56.16-4.37Q56.16-1.78 54.24-0.41L54.24-0.41L54.24-0.41Q52.32 0.96 49.30 0.96L49.30 0.96L49.30 0.96Q47.57 0.96 44.93 0.58L44.93 0.58L44.93 0.58Q39.74-0.24 38.16-0.24L38.16-0.24L38.16-0.24Q36.58-0.24 35.95-0.17L35.95-0.17L35.95-0.17Q35.33-0.10 34.32 0L34.32 0L40.22-31.68L60.91-31.68L60.91-31.68Q60.91-28.75 59.50-27.22L59.50-27.22L59.50-27.22Q58.08-25.68 55.30-25.68L55.30-25.68L55.30-25.68Q52.51-25.68 49.68-26.98L49.68-26.98L48.19-18.58L56.74-18.58L56.74-18.58Q56.74-16.03 55.49-14.62L55.49-14.62L55.49-14.62Q54.24-13.20 52.15-13.20L52.15-13.20L52.15-13.20Q50.06-13.20 48.77-13.68L48.77-13.68L48.77-13.68Q47.47-14.16 47.33-14.30L47.33-14.30L45.60-5.23L45.60-5.23Q46.75-5.09 48.91-5.09L48.91-5.09L48.91-5.09Q52.61-5.09 55.25-7.39ZM80.64-7.39L80.64-7.39L80.64-7.39Q81.55-6.24 81.55-4.01L81.55-4.01L81.55-4.01Q81.55-1.78 79.85-0.41L79.85-0.41L79.85-0.41Q78.14 0.96 75.17 0.96L75.17 0.96L75.17 0.96Q73.44 0.96 70.75 0.58L70.75 0.58L70.75 0.58Q65.47-0.24 63.96-0.24L63.96-0.24L63.96-0.24Q62.45-0.24 61.82-0.17L61.82-0.17L61.82-0.17Q61.20-0.10 60.19 0L60.19 0L66-31.68L76.51-31.68L71.71-5.28L71.71-5.28Q72.34-5.18 72.91-5.18L72.91-5.18L74.11-5.18L74.11-5.18Q78.14-5.18 80.64-7.39ZM104.83-7.39L104.83-7.39L104.83-7.39Q105.74-6.24 105.74-4.01L105.74-4.01L105.74-4.01Q105.74-1.78 104.04-0.41L104.04-0.41L104.04-0.41Q102.34 0.96 99.36 0.96L99.36 0.96L99.36 0.96Q97.63 0.96 94.94 0.58L94.94 0.58L94.94 0.58Q89.66-0.24 88.15-0.24L88.15-0.24L88.15-0.24Q86.64-0.24 86.02-0.17L86.02-0.17L86.02-0.17Q85.39-0.10 84.38 0L84.38 0L90.19-31.68L100.70-31.68L95.90-5.28L95.90-5.28Q96.53-5.18 97.10-5.18L97.10-5.18L98.30-5.18L98.30-5.18Q102.34-5.18 104.83-7.39ZM109.20-11.71L109.20-11.71L109.20-11.71Q109.20-20.78 113.90-26.50L113.90-26.50L113.90-26.50Q118.90-32.69 127.58-32.69L127.58-32.69L127.58-32.69Q133.87-32.69 137.04-29.64L137.04-29.64L137.04-29.64Q140.21-26.59 140.21-20.16L140.21-20.16L140.21-20.16Q140.21-10.37 135.22-4.66L135.22-4.66L135.22-4.66Q130.27 0.96 121.97 0.96L121.97 0.96L121.97 0.96Q115.49 0.96 112.34-2.28L112.34-2.28L112.34-2.28Q109.20-5.52 109.20-11.71ZM121.82-21.65L121.82-21.65L121.82-21.65Q119.66-13.01 119.66-6.19L119.66-6.19L119.66-6.19Q119.66-4.56 120.22-3.50L120.22-3.50L120.22-3.50Q120.77-2.45 122.23-2.45L122.23-2.45L122.23-2.45Q123.70-2.45 124.61-3.14L124.61-3.14L124.61-3.14Q125.52-3.84 126.24-5.42L126.24-5.42L126.24-5.42Q127.39-8.02 128.47-13.51L128.47-13.51L128.47-13.51Q129.55-19.01 129.65-21.29L129.65-21.29L129.65-21.29Q129.74-23.57 129.74-25.30L129.74-25.30L129.74-25.30Q129.74-27.02 129.22-28.13L129.22-28.13L129.22-28.13Q128.69-29.23 127.27-29.23L127.27-29.23L127.27-29.23Q125.86-29.23 124.90-28.37L124.90-28.37L124.90-28.37Q123.12-26.74 121.82-21.65ZM153.65-29.76L153.65-29.76L153.65-29.76Q154.32-31.10 155.78-31.85L155.78-31.85L155.78-31.85Q157.25-32.59 159.26-32.59L159.26-32.59L159.26-32.59Q162.43-32.59 164.33-30.31L164.33-30.31L164.33-30.31Q166.22-28.03 166.22-23.04L166.22-23.04L166.22-5.90L177.22-31.63L182.88-31.63L184.18-7.34L184.03-5.95L195.46-31.63L202.03-31.63L186.67 0L176.45 0L175.49-14.59L169.15 0L157.58 0L156.14-23.04L156.14-23.04Q156-25.63 155.30-27.34L155.30-27.34L155.30-27.34Q154.61-29.04 153.65-29.76ZM200.35-11.71L200.35-11.71L200.35-11.71Q200.35-20.78 205.06-26.50L205.06-26.50L205.06-26.50Q210.05-32.69 218.74-32.69L218.74-32.69L218.74-32.69Q225.02-32.69 228.19-29.64L228.19-29.64L228.19-29.64Q231.36-26.59 231.36-20.16L231.36-20.16L231.36-20.16Q231.36-10.37 226.37-4.66L226.37-4.66L226.37-4.66Q221.42 0.96 213.12 0.96L213.12 0.96L213.12 0.96Q206.64 0.96 203.50-2.28L203.50-2.28L203.50-2.28Q200.35-5.52 200.35-11.71ZM212.98-21.65L212.98-21.65L212.98-21.65Q210.82-13.01 210.82-6.19L210.82-6.19L210.82-6.19Q210.82-4.56 211.37-3.50L211.37-3.50L211.37-3.50Q211.92-2.45 213.38-2.45L213.38-2.45L213.38-2.45Q214.85-2.45 215.76-3.14L215.76-3.14L215.76-3.14Q216.67-3.84 217.39-5.42L217.39-5.42L217.39-5.42Q218.54-8.02 219.62-13.51L219.62-13.51L219.62-13.51Q220.70-19.01 220.80-21.29L220.80-21.29L220.80-21.29Q220.90-23.57 220.90-25.30L220.90-25.30L220.90-25.30Q220.90-27.02 220.37-28.13L220.37-28.13L220.37-28.13Q219.84-29.23 218.42-29.23L218.42-29.23L218.42-29.23Q217.01-29.23 216.05-28.37L216.05-28.37L216.05-28.37Q214.27-26.74 212.98-21.65ZM243.55 0L233.28 0L239.14-31.54L239.14-31.54Q243.89-32.06 250.82-32.06L250.82-32.06L250.82-32.06Q257.76-32.06 260.98-30.05L260.98-30.05L260.98-30.05Q264.19-28.03 264.19-23.98L264.19-23.98L264.19-23.98Q264.19-19.92 262.10-17.38L262.10-17.38L262.10-17.38Q260.02-14.83 256.42-14.02L256.42-14.02L256.42-14.02Q257.23-10.03 259.10-6.82L259.10-6.82L259.10-6.82Q260.83-3.79 262.85-2.83L262.85-2.83L262.85-2.83Q262.13-0.82 260.66 0.07L260.66 0.07L260.66 0.07Q259.20 0.96 257.11 0.96L257.11 0.96L257.11 0.96Q255.02 0.96 253.39-0.26L253.39-0.26L253.39-0.26Q251.76-1.49 250.46-3.74L250.46-3.74L250.46-3.74Q247.73-8.64 247.44-16.37L247.44-16.37L247.78-16.37L247.78-16.37Q251.33-16.46 253.10-18.31L253.10-18.31L253.10-18.31Q254.88-20.16 254.88-24.05L254.88-24.05L254.88-24.05Q254.88-28.90 250.80-29.09L250.80-29.09L249.74-29.09L249.74-29.09Q249.31-29.09 249.07-29.04L249.07-29.04L243.55 0ZM286.46-7.39L286.46-7.39L286.46-7.39Q287.38-6.24 287.38-4.01L287.38-4.01L287.38-4.01Q287.38-1.78 285.67-0.41L285.67-0.41L285.67-0.41Q283.97 0.96 280.99 0.96L280.99 0.96L280.99 0.96Q279.26 0.96 276.58 0.58L276.58 0.58L276.58 0.58Q271.30-0.24 269.78-0.24L269.78-0.24L269.78-0.24Q268.27-0.24 267.65-0.17L267.65-0.17L267.65-0.17Q267.02-0.10 266.02 0L266.02 0L271.82-31.68L282.34-31.68L277.54-5.28L277.54-5.28Q278.16-5.18 278.74-5.18L278.74-5.18L279.94-5.18L279.94-5.18Q283.97-5.18 286.46-7.39ZM321.74-19.92L321.74-19.92L321.74-19.92Q321.74 0.53 299.57 0.53L299.57 0.53L299.57 0.53Q296.02 0.53 290.16-0.34L290.16-0.34L295.54-28.70L295.54-28.70Q295.92-30.62 296.16-31.73L296.16-31.73L296.16-31.73Q303.46-32.26 306.70-32.26L306.70-32.26L306.70-32.26Q309.94-32.26 312.91-31.58L312.91-31.58L312.91-31.58Q315.89-30.91 317.86-29.42L317.86-29.42L317.86-29.42Q321.74-26.50 321.74-19.92ZM311.86-21.70L311.86-21.70L311.86-21.70Q311.86-28.85 306.72-28.85L306.72-28.85L306.24-28.85L306.24-28.85Q306-28.85 305.76-28.80L305.76-28.80L300.82-3.02L300.82-3.02Q301.01-2.93 301.20-2.93L301.20-2.93L301.58-2.93L301.58-2.93Q303.36-2.93 305.21-4.03L305.21-4.03L305.21-4.03Q307.06-5.14 308.50-7.39L308.50-7.39L308.50-7.39Q311.86-12.62 311.86-21.70ZM319.97 6.19L319.97 6.19L319.97 6.19Q323.66 2.21 323.66-2.78L323.66-2.78L323.66-2.78Q323.66-4.32 323.14-5.76L323.14-5.76L323.14-5.76Q323.71-6.14 324.86-6.41L324.86-6.41L324.86-6.41Q326.02-6.67 326.88-6.67L326.88-6.67L326.88-6.67Q328.99-6.67 330.24-5.54L330.24-5.54L330.24-5.54Q331.49-4.42 331.49-2.45L331.49-2.45L331.49-2.45Q331.49-0.48 330.72 1.10L330.72 1.10L330.72 1.10Q329.95 2.69 328.66 3.89L328.66 3.89L328.66 3.89Q325.87 6.48 322.03 6.48L322.03 6.48L322.03 6.48Q321.26 6.48 319.97 6.19ZM355.82 0L345.36 0L351.46-31.68L362.02-31.68L355.82 0ZM370.51-22.13L365.42-22.13L365.42-22.13Q367.20-28.27 367.30-34.75L367.30-34.75L368.69-34.94L368.69-34.94Q369.41-35.04 369.94-35.04L369.94-35.04L369.94-35.04Q372.05-35.04 373.20-34.01L373.20-34.01L373.20-34.01Q374.35-32.98 374.35-31.15L374.35-31.15L374.35-31.15Q374.35-29.23 373.49-27.12L373.49-27.12L373.49-27.12Q371.95-23.38 370.51-22.13L370.51-22.13ZM378.24 0L372.72 0L381.41-31.68L391.44-31.68L393.65-13.58L402.58-31.68L410.98-31.68L411.84-7.97L411.84-7.97Q412.03-3.26 414.34-1.82L414.34-1.82L414.34-1.82Q413.81-0.86 412.27 0.05L412.27 0.05L412.27 0.05Q410.74 0.96 408.70 0.96L408.70 0.96L408.70 0.96Q406.66 0.96 405.46 0.38L405.46 0.38L405.46 0.38Q404.26-0.19 403.58-1.15L403.58-1.15L403.58-1.15Q402.38-2.88 402.38-6.19L402.38-6.19L402.38-21.02L392.93 0L386.98 0L383.62-21.55L378.24 0ZM447.36 0.96L447.36 0.96L447.36 0.96Q441.22 0.96 440.64-7.78L440.64-7.78L432.38-7.78L432.38-7.78Q431.42-5.57 430.75-3.65L430.75-3.65L429.50 0L422.78 0L437.90-31.68L448.22-31.68L450.24-8.35L450.24-8.35Q450.72-3.31 452.64-1.82L452.64-1.82L452.64-1.82Q451.25 0.96 447.36 0.96ZM436.51-17.38L433.87-11.28L440.50-11.28L439.92-23.62L439.92-24.91L436.51-17.38ZM474.14-22.18L474.14-22.18L474.14-22.18Q474.86-23.62 474.86-24.96L474.86-24.96L474.86-24.96Q474.86-26.30 474.72-27.05L474.72-27.05L474.72-27.05Q474.58-27.79 474.24-28.37L474.24-28.37L474.24-28.37Q473.52-29.62 472.08-29.62L472.08-29.62L472.08-29.62Q470.30-29.62 468.86-28.32L468.86-28.32L468.86-28.32Q467.33-26.98 467.33-24.86L467.33-24.86L467.33-24.86Q467.33-23.52 468.26-22.49L468.26-22.49L468.26-22.49Q469.20-21.46 470.64-20.50L470.64-20.50L470.64-20.50Q472.08-19.54 473.71-18.58L473.71-18.58L473.71-18.58Q475.34-17.62 476.78-16.46L476.78-16.46L476.78-16.46Q480.10-13.82 480.10-10.27L480.10-10.27L480.10-10.27Q480.10-7.87 478.82-5.83L478.82-5.83L478.82-5.83Q477.55-3.79 475.44-2.30L475.44-2.30L475.44-2.30Q470.83 0.96 464.74 0.96L464.74 0.96L464.74 0.96Q459.79 0.96 457.25-0.65L457.25-0.65L457.25-0.65Q454.70-2.26 454.70-4.70L454.70-4.70L454.70-4.70Q454.70-9.07 458.11-10.18L458.11-10.18L458.11-10.18Q459.07-10.51 460.54-10.51L460.54-10.51L460.54-10.51Q462.00-10.51 463.68-9.89L463.68-9.89L463.68-9.89Q462.91-7.92 462.91-6.14L462.91-6.14L462.91-6.14Q462.91-2.30 465.65-2.30L465.65-2.30L465.65-2.30Q467.42-2.30 468.89-3.60L468.89-3.60L468.89-3.60Q470.35-4.90 470.35-6.36L470.35-6.36L470.35-6.36Q470.35-7.82 469.42-8.88L469.42-8.88L469.42-8.88Q468.48-9.94 467.09-10.78L467.09-10.78L467.09-10.78Q465.70-11.62 464.09-12.43L464.09-12.43L464.09-12.43Q462.48-13.25 461.09-14.40L461.09-14.40L461.09-14.40Q457.82-17.04 457.82-21.26L457.82-21.26L457.82-21.26Q457.82-24 459.17-26.14L459.17-26.14L459.17-26.14Q460.51-28.27 462.67-29.71L462.67-29.71L462.67-29.71Q466.99-32.64 472.30-32.64L472.30-32.64L472.30-32.64Q477.60-32.64 480.17-31.06L480.17-31.06L480.17-31.06Q482.74-29.47 482.74-26.78L482.74-26.78L482.74-26.78Q482.74-24.43 480.91-22.94L480.91-22.94L480.91-22.94Q479.33-21.70 477.41-21.70L477.41-21.70L477.41-21.70Q475.49-21.70 474.14-22.18ZM501.65-3.60L501.65-3.60L501.65-3.60Q501.65-6.96 502.99-13.68L502.99-13.68L495.89-13.68L493.25 0L483.22 0L489.31-31.68L499.44-31.68L496.66-17.52L503.76-17.52L506.40-31.68L516.53-31.68L516.53-31.68Q515.86-28.13 514.99-24.14L514.99-24.14L513.36-16.32L513.36-16.32Q511.54-7.20 511.54-3.22L511.54-3.22L511.54-3.22Q511.54-1.58 512.06-0.67L512.06-0.67L512.06-0.67Q509.66 0.96 506.86 0.96L506.86 0.96L506.86 0.96Q504.05 0.96 502.85-0.38L502.85-0.38L502.85-0.38Q501.65-1.73 501.65-3.60ZM527.62 0L517.15 0L523.25-31.68L533.81-31.68L527.62 0ZM539.47 0.62L540.53-2.88L540.53-2.88Q542.21-1.97 544.70-1.97L544.70-1.97L544.70-1.97Q547.20-1.97 549.29-3.48L549.29-3.48L549.29-3.48Q551.38-4.99 552.86-7.78L552.86-7.78L552.86-7.78Q555.94-13.68 555.94-23.18L555.94-23.18L555.94-23.18Q555.94-29.23 553.20-29.23L553.20-29.23L553.20-29.23Q551.76-29.23 550.37-27.65L550.37-27.65L550.37-27.65Q548.98-26.06 547.87-23.52L547.87-23.52L547.87-23.52Q545.47-17.71 545.47-10.90L545.47-10.90L545.47-10.90Q545.47-9.50 546.14-8.66L546.14-8.66L546.14-8.66Q546.82-7.82 548.02-7.82L548.02-7.82L548.02-7.82Q547.82-6.34 546.53-5.28L546.53-5.28L546.53-5.28Q545.23-4.22 543.60-4.22L543.60-4.22L543.60-4.22Q539.71-4.22 537.72-6.65L537.72-6.65L537.72-6.65Q535.73-9.07 535.73-13.46L535.73-13.46L535.73-13.46Q535.73-17.86 537.07-21.31L537.07-21.31L537.07-21.31Q538.42-24.77 540.77-27.29L540.77-27.29L540.77-27.29Q543.12-29.81 546.36-31.25L546.36-31.25L546.36-31.25Q549.60-32.69 553.44-32.69L553.44-32.69L553.44-32.69Q566.30-32.69 566.30-20.16L566.30-20.16L566.30-20.16Q566.30-11.14 561.98-5.62L561.98-5.62L561.98-5.62Q557.66-0.05 550.18 0.62L550.18 0.62L550.18 0.62Q554.59 1.58 559.06 1.58L559.06 1.58L559.06 1.58Q562.56 1.58 565.15 0.10L565.15 0.10L565.15 0.10Q565.87-0.34 566.16-0.82L566.16-0.82L566.16-0.82Q567.60 0.48 567.60 3.05L567.60 3.05L567.60 3.05Q567.60 5.62 565.32 7.10L565.32 7.10L565.32 7.10Q563.04 8.59 558.60 8.59L558.60 8.59L558.60 8.59Q554.16 8.59 549.02 6.53L549.02 6.53L549.02 6.53Q543.89 4.46 539.47 0.62L539.47 0.62ZM569.52-7.10L569.52-7.10L569.52-7.10Q569.52-8.98 570-11.38L570-11.38L573.89-31.68L584.50-31.68L580.66-11.23L580.66-11.23Q580.22-8.98 580.22-7.32L580.22-7.32L580.22-7.32Q580.22-5.66 580.92-4.80L580.92-4.80L580.92-4.80Q581.62-3.94 582.91-3.94L582.91-3.94L582.91-3.94Q584.21-3.94 585.02-4.27L585.02-4.27L585.02-4.27Q585.84-4.61 586.51-5.42L586.51-5.42L586.51-5.42Q587.81-7.06 588.62-11.23L588.62-11.23L592.51-31.68L599.76-31.68L595.92-11.28L595.92-11.28Q594.58-4.46 590.88-1.73L590.88-1.73L590.88-1.73Q587.28 0.96 580.18 0.96L580.18 0.96L580.18 0.96Q574.85 0.96 572.02-1.34L572.02-1.34L572.02-1.34Q569.52-3.36 569.52-7.10ZM620.78-7.39L620.78-7.39L620.78-7.39Q621.70-6.24 621.70-4.01L621.70-4.01L621.70-4.01Q621.70-1.78 619.99-0.41L619.99-0.41L619.99-0.41Q618.29 0.96 615.31 0.96L615.31 0.96L615.31 0.96Q613.58 0.96 610.90 0.58L610.90 0.58L610.90 0.58Q605.62-0.24 604.10-0.24L604.10-0.24L604.10-0.24Q602.59-0.24 601.97-0.17L601.97-0.17L601.97-0.17Q601.34-0.10 600.34 0L600.34 0L606.14-31.68L616.66-31.68L611.86-5.28L611.86-5.28Q612.48-5.18 613.06-5.18L613.06-5.18L614.26-5.18L614.26-5.18Q618.29-5.18 620.78-7.39Z" fill="#539a55"></path></g></g><style>text {
  font-size: 64px;
  font-family: Arial Black;
  dominant-baseline: central;
  text-anchor: middle;
}</style></svg>