<svg width="713.3875244140625px" height="94.88504180908203px" xmlns="http://www.w3.org/2000/svg" viewBox="-106.69376220703123 27.557479095458987 713.3875244140625 94.88504180908203" style="background: none;" preserveAspectRatio="xMidYMid"><defs><filter id="editing-extrusion" x="-100%" y="-100%" width="300%" height="300%"><feFlood result="color1" flood-color="#b3c430"></feFlood><feConvolveMatrix order="8,8" divisor="1" kernelMatrix="1 0 0 0 0 0 0 0 0 1 0 0 0 0 0 0 0 0 1 0 0 0 0 0 0 0 0 1 0 0 0 0 0 0 0 0 1 0 0 0 0 0 0 0 0 1 0 0 0 0 0 0 0 0 1 0 0 0 0 0 0 0 0 1" in="SourceAlpha" result="extrude"></feConvolveMatrix><feComposite in="color1" in2="extrude" result="comp-extrude" operator="in"></feComposite><feOffset dx="4" dy="4" in="comp-extrude" result="offset-extrude"></feOffset><feMerge><feMergeNode in="offset-extrude"></feMergeNode><feMergeNode in="SourceGraphic"></feMergeNode></feMerge></filter></defs><g filter="url(#editing-extrusion)"><g transform="translate(-4.937512218952179, 95)"><path d="M32.80-31.12L32.80-24.56L30.80-24.56L30.80-6.56L32.80-6.56L32.80 0L17.68 0L17.68-6.56L19.60-6.56L19.60-13.16L14-13.16L14-6.56L15.92-6.56L15.92 0L0.80 0L0.80-6.56L2.80-6.56L2.80-24.56L0.80-24.56L0.80-31.12L15.92-31.12L15.92-24.56L14-24.56L14-18.48L19.60-18.48L19.60-24.56L17.68-24.56L17.68-31.12L32.80-31.12ZM46.24 0.56L46.24 0.56Q40.56 0.56 37.36-2.42L37.36-2.42L37.36-2.42Q34.16-5.40 34.16-11.12L34.16-11.12L34.16-11.12Q34.16-16.84 37.36-19.82L37.36-19.82L37.36-19.82Q40.56-22.80 46.24-22.80L46.24-22.80L46.24-22.80Q51.88-22.80 54.38-19.86L54.38-19.86L54.38-19.86Q56.88-16.92 56.88-12.56L56.88-12.56L56.88-9.68L43.92-9.68L43.92-9.44L43.92-9.44Q43.92-7.96 44.80-7.26L44.80-7.26L44.80-7.26Q45.68-6.56 47.72-6.56L47.72-6.56L47.72-6.56Q50.16-6.56 52.36-6.92L52.36-6.92L52.36-6.92Q54.56-7.28 56.20-7.84L56.20-7.84L56.20-1.44L56.20-1.44Q54.80-0.68 52.10-0.06L52.10-0.06L52.10-0.06Q49.40 0.56 46.24 0.56L46.24 0.56ZM43.92-14.08L48.56-14.08L48.56-14.56L48.56-14.56Q48.56-15.92 47.98-16.52L47.98-16.52L47.98-16.52Q47.40-17.12 46.24-17.12L46.24-17.12L46.24-17.12Q45.08-17.12 44.50-16.50L44.50-16.50L44.50-16.50Q43.92-15.88 43.92-14.56L43.92-14.56L43.92-14.08ZM70.80 0.04L58.08 0.04L58.08-6.56L59.84-6.56L59.84-24.56L58.08-24.56L58.08-31.12L69.04-31.12L69.04-6.56L70.80-6.56L70.80 0.04ZM84.80 0.04L72.08 0.04L72.08-6.56L73.84-6.56L73.84-24.56L72.08-24.56L72.08-31.12L83.04-31.12L83.04-6.56L84.80-6.56L84.80 0.04ZM98 0.56L98 0.56Q92.32 0.56 89.12-2.42L89.12-2.42L89.12-2.42Q85.92-5.40 85.92-11.12L85.92-11.12L85.92-11.12Q85.92-16.84 89.12-19.82L89.12-19.82L89.12-19.82Q92.32-22.80 98-22.80L98-22.80L98-22.80Q103.76-22.80 106.92-19.78L106.92-19.78L106.92-19.78Q110.08-16.76 110.08-11.12L110.08-11.12L110.08-11.12Q110.08-5.40 106.88-2.42L106.88-2.42L106.88-2.42Q103.68 0.56 98 0.56L98 0.56ZM98-6.56L98-6.56Q99.16-6.56 99.74-7.18L99.74-7.18L99.74-7.18Q100.32-7.80 100.32-9.12L100.32-9.12L100.32-13.12L100.32-13.12Q100.32-14.44 99.74-15.06L99.74-15.06L99.74-15.06Q99.16-15.68 98-15.68L98-15.68L98-15.68Q96.84-15.68 96.26-15.06L96.26-15.06L96.26-15.06Q95.68-14.44 95.68-13.12L95.68-13.12L95.68-9.12L95.68-9.12Q95.68-7.80 96.26-7.18L96.26-7.18L96.26-7.18Q96.84-6.56 98-6.56L98-6.56ZM139.20 0L130 0L124.72-15.68L123.04-15.68L123.04-22.24L135.40-22.24L135.40-15.68L133.72-15.68L135.16-9.44L135.56-9.44L138.48-22.24L145.84-22.24L148.76-9.44L149.16-9.44L150.56-15.68L148.88-15.68L148.88-22.24L160.48-22.24L160.48-15.68L158.80-15.68L153.72 0L144 0L141.80-11.12L141.40-11.12L139.20 0ZM173.52 0.56L173.52 0.56Q167.84 0.56 164.64-2.42L164.64-2.42L164.64-2.42Q161.44-5.40 161.44-11.12L161.44-11.12L161.44-11.12Q161.44-16.84 164.64-19.82L164.64-19.82L164.64-19.82Q167.84-22.80 173.52-22.80L173.52-22.80L173.52-22.80Q179.28-22.80 182.44-19.78L182.44-19.78L182.44-19.78Q185.60-16.76 185.60-11.12L185.60-11.12L185.60-11.12Q185.60-5.40 182.40-2.42L182.40-2.42L182.40-2.42Q179.20 0.56 173.52 0.56L173.52 0.56ZM173.52-6.56L173.52-6.56Q174.68-6.56 175.26-7.18L175.26-7.18L175.26-7.18Q175.84-7.80 175.84-9.12L175.84-9.12L175.84-13.12L175.84-13.12Q175.84-14.44 175.26-15.06L175.26-15.06L175.26-15.06Q174.68-15.68 173.52-15.68L173.52-15.68L173.52-15.68Q172.36-15.68 171.78-15.06L171.78-15.06L171.78-15.06Q171.20-14.44 171.20-13.12L171.20-13.12L171.20-9.12L171.20-9.12Q171.20-7.80 171.78-7.18L171.78-7.18L171.78-7.18Q172.36-6.56 173.52-6.56L173.52-6.56ZM203.96-22.80L203.96-22.80Q204.76-22.80 205.48-22.64L205.48-22.64L205.48-22.64Q206.20-22.48 206.68-22.24L206.68-22.24L206.68-14.60L206.68-14.60Q205.04-15.28 203.16-15.28L203.16-15.28L203.16-15.28Q200.64-15.28 199.28-13.96L199.28-13.96L199.28-13.96Q197.92-12.64 197.92-10.04L197.92-10.04L197.92-6.56L201.52-6.56L201.52 0L186.96 0L186.96-6.56L188.72-6.56L188.72-15.68L186.96-15.68L186.96-22.24L197.92-22.24L197.92-19.32L197.92-19.32Q199.04-21 200.48-21.90L200.48-21.90L200.48-21.90Q201.92-22.80 203.96-22.80L203.96-22.80ZM220.68 0.04L207.96 0.04L207.96-6.56L209.72-6.56L209.72-24.56L207.96-24.56L207.96-31.12L218.92-31.12L218.92-6.56L220.68-6.56L220.68 0.04ZM229.84 0.56L229.84 0.56Q225.76 0.56 223.70-2.48L223.70-2.48L223.70-2.48Q221.64-5.52 221.64-11.12L221.64-11.12L221.64-11.12Q221.64-16.72 223.70-19.76L223.70-19.76L223.70-19.76Q225.76-22.80 229.84-22.80L229.84-22.80L229.84-22.80Q231.88-22.80 233.46-21.80L233.46-21.80L233.46-21.80Q235.04-20.80 236.04-19.52L236.04-19.52L236.04-24.56L233.68-24.56L233.68-31.12L245.24-31.12L245.24-6.56L247-6.56L247 0L236.04 0L236.04-2.72L236.04-2.72Q235.04-1.44 233.46-0.44L233.46-0.44L233.46-0.44Q231.88 0.56 229.84 0.56L229.84 0.56ZM233.72-6.56L233.72-6.56Q234.88-6.56 235.46-7.18L235.46-7.18L235.46-7.18Q236.04-7.80 236.04-9.12L236.04-9.12L236.04-13.12L236.04-13.12Q236.04-14.44 235.46-15.06L235.46-15.06L235.46-15.06Q234.88-15.68 233.72-15.68L233.72-15.68L233.72-15.68Q232.56-15.68 231.98-15.06L231.98-15.06L231.98-15.06Q231.40-14.44 231.40-13.12L231.40-13.12L231.40-9.12L231.40-9.12Q231.40-7.80 231.98-7.18L231.98-7.18L231.98-7.18Q232.56-6.56 233.72-6.56L233.72-6.56ZM252.60 6.44L249.16 6.44L251.24 0L249.20 0L249.20-6.56L255.44-6.56L255.44 0L252.60 6.44ZM285.36 0L270.16 0L270.16-6.56L272.16-6.56L272.16-24.56L270.16-24.56L270.16-31.12L285.36-31.12L285.36-24.56L283.36-24.56L283.36-6.56L285.36-6.56L285.36 0ZM292.28-21.92L287.76-21.92L287.16-31.12L292.88-31.12L292.28-21.92ZM333.24-6.56L335.00-6.56L335.00 0L322.36 0L322.36-6.56L324.04-6.56L324.04-13.12L324.04-13.12Q324.04-14.44 323.48-15.06L323.48-15.06L323.48-15.06Q322.92-15.68 321.80-15.68L321.80-15.68L321.80-15.68Q319.40-15.68 319.40-13.12L319.40-13.12L319.40-6.56L321.08-6.56L321.08 0L308.52 0L308.52-6.56L310.20-6.56L310.20-13.12L310.20-13.12Q310.20-14.44 309.64-15.06L309.64-15.06L309.64-15.06Q309.08-15.68 307.96-15.68L307.96-15.68L307.96-15.68Q305.56-15.68 305.56-13.12L305.56-13.12L305.56-6.56L307.24-6.56L307.24 0L294.60 0L294.60-6.56L296.36-6.56L296.36-15.68L294.60-15.68L294.60-22.24L305.56-22.24L305.56-19.12L305.56-19.12Q308.44-22.80 312.76-22.80L312.76-22.80L312.76-22.80Q315.20-22.80 316.74-21.66L316.74-21.66L316.74-21.66Q318.28-20.52 318.92-18.44L318.92-18.44L318.92-18.44Q320.36-20.52 322.22-21.64L322.22-21.64L322.22-21.64Q324.08-22.76 326.60-22.76L326.60-22.76L326.60-22.76Q329.92-22.76 331.58-20.68L331.58-20.68L331.58-20.68Q333.24-18.60 333.24-14.96L333.24-14.96L333.24-6.56ZM370.96-31.12L377.72-6.56L379.32-6.56L379.32 0L363.64 0L363.64-6.56L366.04-6.56L365.40-9.76L359.96-9.76L359.32-6.56L361.72-6.56L361.72 0L348.04 0L348.04-6.56L349.64-6.56L356.40-31.12L370.96-31.12ZM362.48-21.96L360.84-14L364.52-14L362.88-21.96L362.48-21.96ZM390.24 0.56L390.24 0.56Q385.20 0.56 380.52-1.04L380.52-1.04L380.52-6.96L387.00-6.96L387.00-6.56L387.00-6.56Q387.00-4.64 389.44-4.64L389.44-4.64L389.44-4.64Q391.60-4.64 391.60-6.12L391.60-6.12L391.60-6.12Q391.60-6.92 390.98-7.32L390.98-7.32L390.98-7.32Q390.36-7.72 388.80-8L388.80-8L386.80-8.36L386.80-8.36Q380.52-9.48 380.52-15.48L380.52-15.48L380.52-15.48Q380.52-18.96 383.16-20.88L383.16-20.88L383.16-20.88Q385.80-22.80 390.28-22.80L390.28-22.80L390.28-22.80Q395.28-22.80 398.72-21.12L398.72-21.12L398.72-15.56L392.64-15.56L392.64-15.96L392.64-15.96Q392.64-16.76 392.10-17.18L392.10-17.18L392.10-17.18Q391.56-17.60 390.52-17.60L390.52-17.60L390.52-17.60Q388.52-17.60 388.52-16.32L388.52-16.32L388.52-16.32Q388.52-15.64 389.08-15.28L389.08-15.28L389.08-15.28Q389.64-14.92 391.12-14.60L391.12-14.60L393.40-14.16L393.40-14.16Q396.96-13.48 398.48-11.64L398.48-11.64L398.48-11.64Q400.00-9.80 400.00-6.92L400.00-6.92L400.00-6.92Q400.00-3.28 397.46-1.36L397.46-1.36L397.46-1.36Q394.92 0.56 390.24 0.56L390.24 0.56ZM426.08-6.56L427.84-6.56L427.84 0L415.20 0L415.20-6.56L416.88-6.56L416.88-13.12L416.88-13.12Q416.88-14.44 416.32-15.06L416.32-15.06L416.32-15.06Q415.76-15.68 414.64-15.68L414.64-15.68L414.64-15.68Q412.24-15.68 412.24-13.12L412.24-13.12L412.24-6.56L413.92-6.56L413.92 0L401.28 0L401.28-6.56L403.04-6.56L403.04-24.56L401.28-24.56L401.28-31.12L412.24-31.12L412.24-19.12L412.24-19.12Q413.72-20.96 415.44-21.88L415.44-21.88L415.44-21.88Q417.16-22.80 419.44-22.80L419.44-22.80L419.44-22.80Q422.76-22.80 424.42-20.72L424.42-20.72L424.42-20.72Q426.08-18.64 426.08-15L426.08-15L426.08-6.56ZM439.20-24.44L431.04-24.44L431.04-31.12L439.20-31.12L439.20-24.44ZM441.84 0L429.12 0L429.12-6.56L430.88-6.56L430.88-15.68L429.12-15.68L429.12-22.24L440.08-22.24L440.08-6.56L441.84-6.56L441.84 0ZM454.28 8.88L454.28 2.32L457.04 2.32L457.04-2.72L457.04-2.72Q456.04-1.44 454.46-0.44L454.46-0.44L454.46-0.44Q452.88 0.56 450.84 0.56L450.84 0.56L450.84 0.56Q446.76 0.56 444.70-2.48L444.70-2.48L444.70-2.48Q442.64-5.52 442.64-11.12L442.64-11.12L442.64-11.12Q442.64-16.72 444.70-19.76L444.70-19.76L444.70-19.76Q446.76-22.80 450.84-22.80L450.84-22.80L450.84-22.80Q452.88-22.80 454.46-21.80L454.46-21.80L454.46-21.80Q456.04-20.80 457.04-19.52L457.04-19.52L457.04-22.24L468-22.24L468-15.68L466.24-15.68L466.24 8.88L454.28 8.88ZM454.72-6.56L454.72-6.56Q455.88-6.56 456.46-7.18L456.46-7.18L456.46-7.18Q457.04-7.80 457.04-9.12L457.04-9.12L457.04-13.12L457.04-13.12Q457.04-14.44 456.46-15.06L456.46-15.06L456.46-15.06Q455.88-15.68 454.72-15.68L454.72-15.68L454.72-15.68Q453.56-15.68 452.98-15.06L452.98-15.06L452.98-15.06Q452.40-14.44 452.40-13.12L452.40-13.12L452.40-9.12L452.40-9.12Q452.40-7.80 452.98-7.18L452.98-7.18L452.98-7.18Q453.56-6.56 454.72-6.56L454.72-6.56ZM493.60-6.56L495.36-6.56L495.36 0L484.40 0L484.40-3.12L484.40-3.12Q481.52 0.56 477.20 0.56L477.20 0.56L477.20 0.56Q473.88 0.56 472.22-1.52L472.22-1.52L472.22-1.52Q470.56-3.60 470.56-7.24L470.56-7.24L470.56-15.68L468.80-15.68L468.80-22.24L479.76-22.24L479.76-9.12L479.76-9.12Q479.76-7.80 480.34-7.18L480.34-7.18L480.34-7.18Q480.92-6.56 482.08-6.56L482.08-6.56L482.08-6.56Q483.24-6.56 483.82-7.18L483.82-7.18L483.82-7.18Q484.40-7.80 484.40-9.12L484.40-9.12L484.40-15.68L482.24-15.68L482.24-22.24L493.60-22.24L493.60-6.56ZM509.20 0.04L496.48 0.04L496.48-6.56L498.24-6.56L498.24-24.56L496.48-24.56L496.48-31.12L507.44-31.12L507.44-6.56L509.20-6.56L509.20 0.04Z" fill="#e5ee2f"></path></g></g><style>text {
  font-size: 64px;
  font-family: Arial Black;
  dominant-baseline: central;
  text-anchor: middle;
}</style></svg>